<!DOCTYPE svg PUBLIC "-//W3C//DTD SVG 1.1//EN" "http://www.w3.org/Graphics/SVG/1.1/DTD/svg11.dtd">
<!-- Uploaded to: SVG Repo, www.svgrepo.com, Transformed by: SVG Repo Mixer Tools -->
<svg width="64px" height="64px" viewBox="0 0 48 48" id="Layer_2" data-name="Layer 2" xmlns="http://www.w3.org/2000/svg" fill="#000000" stroke="#000000" stroke-width="1.9200000000000004">
<g id="SVGRepo_bgCarrier" stroke-width="0"/>
<g id="SVGRepo_tracerCarrier" stroke-linecap="round" stroke-linejoin="round"/>
<g id="SVGRepo_iconCarrier">
<defs>
<style>.cls-1{fill:none;stroke:#5B8CB8;stroke-linecap:round;stroke-linejoin:round;}</style>
</defs>
<path class="cls-1" d="M15,5.5A9.49,9.49,0,0,0,5.5,15v4.15a4.21,4.21,0,0,1,.5,0h4V15.05A5.08,5.08,0,0,1,15.05,10h4.08V6a4.21,4.21,0,0,1,0-.5Zm13.81,0a4.21,4.21,0,0,1,0,.5v4H33A5.07,5.07,0,0,1,38,15.05v4.08h4a4.21,4.21,0,0,1,.5,0V15A9.49,9.49,0,0,0,33,5.5ZM24,16.3a7.68,7.68,0,1,0,5.45,2.25A7.7,7.7,0,0,0,24,16.3ZM5.5,28.83V33A9.49,9.49,0,0,0,15,42.5h4.15a4.21,4.21,0,0,1,0-.5V38H15.05A5.07,5.07,0,0,1,10,33V28.87H6a4.21,4.21,0,0,1-.5,0Zm30.94,3.5a4.11,4.11,0,1,0,4.11,4.11,4.11,4.11,0,0,0-4.11-4.11Zm0,0"/>
</g>
</svg>